<svg width="329" height="338" viewBox="0 0 329 338" fill="none" xmlns="http://www.w3.org/2000/svg">
<path d="M191.652 289.51C163.432 235.24 190.242 190.39 190.242 190.39L179.512 175.36V175.34L179.492 175.33L179.442 175.26L179.412 175.3L161.962 169.24C161.962 169.24 126.482 207.61 66.4617 195.81C50.8117 236.55 50.3117 260.1 86.0817 299.98C86.0817 299.98 86.0917 299.99 86.1017 299.99C86.1217 300.01 86.1417 300.04 86.1617 300.06L86.1817 300.03C134.522 323.11 156.972 316 191.662 289.51H191.652Z" fill="#FFE100"/>
<path d="M171.221 124.23C159.681 109.6 91.541 90.0198 38.701 107.79C-30.429 131.04 40.031 209.65 109.171 196.75C153.201 188.54 191.111 149.47 171.211 124.23H171.221Z" fill="#D9F1FD"/>
<path d="M93.9383 141.46L91.0283 136.32C90.6683 136.52 87.7083 138.27 84.0483 142.04C77.3183 142.6 70.4383 143.53 63.4983 144.89L63.9583 143.72C46.1783 136.68 39.8083 113.1 39.7483 112.86L33.7383 114.42L27.7283 115.97C27.9883 116.97 33.1883 136.49 48.1683 148.64C37.3383 151.87 26.5583 156.34 16.2383 162.44L22.5583 173.14C39.0983 163.37 57.1683 158.17 74.6783 155.73C70.1183 165.33 66.9383 178.99 69.1383 197.82L81.4783 196.37C78.9083 174.47 84.6483 161.38 89.8983 154.25C129.658 152.02 163.068 162.17 163.578 162.33L167.288 150.48C165.148 149.81 133.248 140.08 93.9383 141.45V141.46Z" fill="#00AEEF"/>
<path d="M231.089 169.05C248.379 176 286.369 235.86 284.199 291.57C281.369 364.45 186.089 318.99 178.989 249.02C174.469 204.46 201.269 157.08 231.089 169.06V169.05Z" fill="#D9F1FD"/>
<path d="M279.452 304.4L279.042 291.99C278.812 291.99 254.472 292.63 242.622 277.45L241.632 278.22C240.982 271.18 239.942 264.32 238.582 257.71C241.172 253.13 242.012 249.81 242.102 249.41L236.342 248.03C226.582 209.94 208.272 182.08 207.022 180.22L196.702 187.13C197.002 187.58 216.182 216.73 225.232 255.52C219.882 262.57 208.942 271.78 187.172 275.49L189.262 287.73C207.972 284.54 220.192 277.63 228.112 270.54C230.702 288.02 230.782 306.82 226.062 325.47L238.102 328.51C241.042 316.89 242.302 305.29 242.342 293.98C256.522 303.76 274.142 304.4 278.482 304.4C279.002 304.4 279.332 304.39 279.442 304.39L279.452 304.4Z" fill="#00AEEF"/>
<path d="M325.508 75.6098C321.828 72.0198 315.928 72.0998 312.338 75.7798C294.608 93.9798 274.918 100.16 261.598 102.16C257.058 96.5498 251.738 91.3998 245.718 86.8998C237.738 80.9298 229.138 76.5498 220.388 73.7198C218.138 60.5698 217.638 38.5998 230.988 14.8898C233.518 10.4098 231.928 4.72976 227.438 2.19976C222.958 -0.330239 217.278 1.25976 214.748 5.74976C200.878 30.3698 199.438 53.6198 201.128 69.9898C180.338 68.6398 160.718 76.0598 148.818 91.9598C146.928 94.4798 145.318 97.1498 143.918 99.9298C114.398 90.7698 72.1482 86.7198 35.7182 98.9698C9.07819 107.92 -3.38181 126.51 2.37819 148.69C7.60819 168.8 27.8882 188.73 53.9582 199.43C47.5582 213.11 44.9082 227.88 46.4182 242.39C48.2882 260.24 56.3282 276.74 69.8682 290.9L62.4982 331.64L99.4982 313.1C112.388 319.77 125.658 323.19 138.848 323.19C143.468 323.19 148.078 322.77 152.648 321.93C167.018 319.3 180.468 312.56 191.798 302.55C209.028 324.18 233.218 337.97 253.758 337.97C254.228 337.97 254.698 337.97 255.168 337.95C278.068 337.24 292.398 320.04 293.488 291.94C294.988 253.43 279.098 213.92 261.938 188.18C264.178 186.08 266.268 183.79 268.138 181.29C278.228 167.82 281.318 150.47 276.868 132.44C275.738 127.87 274.148 123.4 272.138 119.07C287.778 115.5 307.628 107.28 325.658 88.7798C329.248 85.0898 329.168 79.1998 325.488 75.6098H325.508ZM207.018 183.88C211.948 192.48 221.848 211.16 229.448 234.6L229.158 234.55C229.108 234.82 224.238 259.36 193.798 268.45C190.818 261.37 188.898 254.37 188.258 248.08C185.538 221.31 195.228 195.81 207.018 183.88ZM179.458 191.78C173.008 205.45 169.258 221.87 169.178 238.41C163.258 239.2 151.258 239.2 138.738 229.82C126.288 220.5 122.978 209.17 122.108 203.19C137.948 198.45 152.658 190.24 163.968 180.21C166.278 182.36 168.708 184.42 171.278 186.35C173.928 188.33 176.668 190.12 179.458 191.78ZM108.808 144.27C133.438 144.96 154.148 149.2 163.788 151.51C155.668 166.19 133.928 182.66 107.468 187.6C100.338 188.93 93.2482 189.14 86.3582 188.51C86.2182 156.63 107.948 145.05 108.948 144.54L108.808 144.27ZM85.2582 110.06C123.278 110.06 158.148 122.71 163.898 130.01C167.038 133.99 167.988 138.51 166.848 143.71C158.538 141.63 140.768 137.78 118.618 136.34C103.968 135.39 85.9282 135.51 67.2682 138.63C56.1582 133.81 49.4682 123 45.9282 115.31C58.7082 111.58 72.1582 110.06 85.2482 110.06H85.2582ZM20.4182 144C17.4482 132.57 23.3782 123.83 38.0282 117.97C41.0982 124.89 46.5082 134.3 55.2482 141.05C44.6682 143.58 34.0782 147.22 23.9582 152.28C22.3282 149.48 21.1282 146.69 20.4282 144H20.4182ZM28.7582 159.13C50.0682 148.72 73.8082 144.87 95.6282 144.26C87.8882 151.63 78.2782 165.21 78.0682 187.32C57.2382 183.25 39.0782 171.62 28.7582 159.13ZM149.328 303.6C131.518 306.85 112.728 301.57 94.9782 288.28C70.0282 269.6 54.7382 237.61 71.8582 205.04C74.7882 205.69 77.7582 206.23 80.7582 206.62C82.5482 222.63 90.8282 245.68 113.918 262.97C131.428 276.08 149.768 280.12 164.548 280.12C169.288 280.12 173.668 279.7 177.528 279.04C178.708 281.71 180.008 284.31 181.398 286.85C172.198 295.6 161.128 301.44 149.318 303.6H149.328ZM237.658 316.14C220.908 309.45 206.338 293.15 197.398 276.03C218.138 269.53 228.338 256.66 233.188 247.25C238.798 268.53 241.788 292.6 237.668 316.15L237.658 316.14ZM254.628 319.32C251.598 319.41 248.588 319.13 245.638 318.54C247.688 307.3 248.208 296.02 247.648 285.05C256.578 291.54 267.138 294.09 274.648 295.09C273.158 310.8 266.448 318.95 254.638 319.32H254.628ZM274.978 286.74C266.598 285.52 254.328 282.15 246.578 272.84C244.308 254.06 239.338 236.72 234.308 222.93C226.678 202.04 217.968 186.08 213.638 178.71C216.328 177.23 218.988 176.49 221.658 176.49C223.638 176.49 225.618 176.89 227.628 177.7C239.218 182.36 274.898 234.77 274.978 286.74Z" fill="black"/>
</svg>
